<?xml version="1.0" encoding="utf-8"?>
<!-- Generator: Adobe Illustrator 27.5.0, SVG Export Plug-In . SVG Version: 6.00 Build 0)  -->
<svg version="1.1" xmlns="http://www.w3.org/2000/svg" xmlns:xlink="http://www.w3.org/1999/xlink" x="0px" y="0px"
	 viewBox="0 0 500 500" style="enable-background:new 0 0 500 500;" xml:space="preserve">
<g id="BACKGROUND">
	<rect id="XMLID_28_" y="0" style="fill:#FFFFFF;" width="500" height="500"/>
</g>
<g id="OBJEKTS">
	<g id="XMLID_55_">
	</g>
	<g id="XMLID_122_">
	</g>
	<g>
		<g>
			
				<line style="fill:#FFFFFF;stroke:#000000;stroke-width:2;stroke-miterlimit:10;" x1="166.713" y1="387.928" x2="280.465" y2="387.928"/>
			
				<line style="fill:#FFFFFF;stroke:#000000;stroke-width:2;stroke-miterlimit:10;" x1="198.043" y1="392.409" x2="261.667" y2="392.409"/>
			
				<line style="fill:#FFFFFF;stroke:#000000;stroke-width:2;stroke-miterlimit:10;" x1="279.983" y1="399.978" x2="324.327" y2="399.978"/>
			
				<line style="fill:#FFFFFF;stroke:#000000;stroke-width:2;stroke-miterlimit:10;" x1="116.94" y1="423.114" x2="175.871" y2="423.114"/>
			
				<line style="fill:#FFFFFF;stroke:#000000;stroke-width:2;stroke-miterlimit:10;" x1="83.326" y1="424.078" x2="109.646" y2="424.078"/>
			
				<line style="fill:#FFFFFF;stroke:#000000;stroke-width:2;stroke-miterlimit:10;" x1="102.606" y1="403.352" x2="166.231" y2="403.352"/>
		</g>
		<path style="fill:none;stroke:#000000;stroke-miterlimit:10;" d="M352.283,368.648l-9.575-95.152
			c-0.547-5.108-5.149-5.584-6.126-0.633l-10.327,95.785"/>
		<path d="M389.639,275.14H209.852c-1.73,0-3.133-1.403-3.133-3.133l0,0c0-1.73,1.403-3.133,3.133-3.133h179.787
			c1.73,0,3.133,1.403,3.133,3.133l0,0C392.772,273.737,391.369,275.14,389.639,275.14z"/>
		
			<line style="fill:#FFFFFF;stroke:#000000;stroke-width:2;stroke-miterlimit:10;" x1="320.546" y1="361.723" x2="467" y2="361.723"/>
		<path style="fill:#FFFFFF;stroke:#000000;stroke-width:2;stroke-miterlimit:10;" d="M38.5,367.684c0.964,0,115.68,0,115.68,0"/>
		<g>
			<path style="fill:none;stroke:#000000;stroke-miterlimit:10;" d="M65.118,252.74c17.349,34.637,26.748,73.227,27.268,111.963"/>
			<path style="fill:none;stroke:#000000;stroke-miterlimit:10;" d="M50.707,297.306c14.626,19.852,27.418,45.14,29.079,70.096"/>
			<path style="fill:#FFFFFF;stroke:#000000;stroke-miterlimit:10;" d="M70.444,256.449c-1.519-4.274-3.683-8.277-6.506-11.83
				c-1.133-1.426-3.039-2.048-4.668-0.989c-1.417,0.922-2.128,3.234-0.989,4.668c2.481,3.123,4.42,6.516,5.756,10.275
				C65.49,262.659,71.904,260.556,70.444,256.449z"/>
			<path style="fill:#FFFFFF;stroke:#000000;stroke-miterlimit:10;" d="M81.617,261.175c-1.724-0.891-3.588-0.111-4.549,1.445
				c-1.143,1.851-2.285,3.701-3.428,5.552c-0.957,1.551-0.086,3.758,1.445,4.549c1.724,0.891,3.588,0.111,4.549-1.445
				c1.143-1.851,2.285-3.701,3.428-5.552C84.02,264.173,83.149,261.966,81.617,261.175z"/>
			<path style="fill:#FFFFFF;stroke:#000000;stroke-miterlimit:10;" d="M90.386,276.759c-1.284-1.167-3.625-1.202-4.767,0.228
				c-1.933,2.419-3.865,4.837-5.798,7.255c-1.137,1.423-1.18,3.487,0.228,4.767c1.284,1.168,3.625,1.201,4.767-0.228
				c1.933-2.418,3.865-4.837,5.798-7.255C91.75,280.103,91.793,278.039,90.386,276.759z"/>
			<path style="fill:#FFFFFF;stroke:#000000;stroke-miterlimit:10;" d="M96.663,292.527c-0.026-0.024-0.051-0.048-0.077-0.072
				c-1.102-1.032-2.857-1.124-4.109-0.331c-1.471,0.931-2.561,2.761-3.633,4.109c-1.224,1.539-2.425,3.096-3.609,4.665
				c-1.097,1.454-1.206,3.463,0.228,4.767c1.253,1.14,3.664,1.234,4.767-0.228c1.036-1.373,2.084-2.738,3.151-4.088
				c0.457-0.578,0.917-1.155,1.381-1.728c0.218-0.27,0.576-0.854,0.905-1.301c0.685-0.248,1.297-0.768,1.689-1.663
				c0.012-0.027,0.024-0.054,0.035-0.081C98.005,295.176,97.806,293.597,96.663,292.527z"/>
			<path style="fill:#FFFFFF;stroke:#000000;stroke-miterlimit:10;" d="M102.127,311.74c-0.948-1.457-3.198-2.079-4.668-0.989
				c-3.002,2.227-5.83,4.68-8.443,7.353c-3.044,3.115,1.964,7.64,4.995,4.539c2.219-2.27,4.578-4.344,7.128-6.236
				C102.601,315.323,103.164,313.334,102.127,311.74z"/>
			<path style="fill:#FFFFFF;stroke:#000000;stroke-miterlimit:10;" d="M74.562,274.536c-2.176-1.053-4.385-2.026-6.63-2.921
				c-1.691-0.674-3.654-0.286-4.549,1.445c-0.773,1.496-0.257,3.871,1.445,4.549c2.245,0.895,4.454,1.868,6.63,2.921
				C75.368,282.422,78.475,276.431,74.562,274.536z"/>
			<path style="fill:#FFFFFF;stroke:#000000;stroke-miterlimit:10;" d="M80.06,294.059c-1.994-0.676-3.883-1.675-5.662-2.79
				c-1.544-0.968-3.761-0.078-4.549,1.445c-0.895,1.733-0.104,3.577,1.445,4.549c2.326,1.458,4.772,2.518,7.367,3.397
				c1.729,0.586,3.654-0.968,4-2.602C83.077,296.1,81.794,294.646,80.06,294.059z"/>
			<path style="fill:#FFFFFF;stroke:#000000;stroke-miterlimit:10;" d="M85.708,312.001c-2.967-1.202-5.999-2.223-9.1-3.021
				c-4.209-1.082-5.599,5.521-1.398,6.602c2.521,0.648,4.982,1.436,7.395,2.413c1.687,0.683,3.658,0.279,4.549-1.445
				C87.93,315.046,87.406,312.688,85.708,312.001z"/>
			<path d="M53.803,296.362c-2.436-3.11-5.255-5.649-8.615-7.73c-1.549-0.959-3.758-0.085-4.549,1.445
				c-0.892,1.726-0.11,3.586,1.445,4.549c2.31,1.43,4.386,3.275,6.062,5.415c1.123,1.434,3.046,2.044,4.668,0.989
				C54.239,300.103,54.932,297.804,53.803,296.362z"/>
			<path d="M65.781,300.768c0.305-1.797-0.766-3.611-2.602-4c-1.732-0.367-3.694,0.797-4,2.602c-0.397,2.34-0.794,4.679-1.191,7.019
				c-0.305,1.797,0.766,3.611,2.602,4c1.732,0.367,3.694-0.797,4-2.602C64.987,305.447,65.384,303.108,65.781,300.768z"/>
			<path d="M72.205,311.648c-1.971-0.418-3.397,0.873-4,2.602c-0.799,2.293-1.508,4.612-2.127,6.96c-0.465,1.764,0.88,3.635,2.602,4
				c1.86,0.394,3.534-0.833,4-2.602c0.619-2.348,1.327-4.667,2.127-6.96C75.408,313.924,73.827,311.992,72.205,311.648z"/>
			<path d="M61.026,314.627c-2.052-0.4-4.105-0.8-6.157-1.2c-1.789-0.349-3.618,0.797-4,2.602c-0.374,1.767,0.805,3.65,2.602,4
				c2.052,0.4,4.105,0.8,6.157,1.201c1.789,0.349,3.618-0.797,4-2.602C64.002,316.86,62.823,314.977,61.026,314.627z"/>
			<path d="M69.429,332.133c-2.768-0.6-5.556-0.918-8.384-1.059c-1.821-0.091-3.265,1.897-3.166,3.572
				c0.118,1.984,1.745,3.074,3.572,3.165c2.218,0.111,4.41,0.453,6.579,0.923C72.275,339.655,73.679,333.054,69.429,332.133z"/>
		</g>
		<g>
			<path style="fill:#FFFFFF;stroke:#000000;stroke-miterlimit:10;" d="M412.357,360.871c-0.787-41.387-3.362-76.073-5.043-114.109"
				/>
			<path style="fill:#FFFFFF;stroke:#000000;stroke-miterlimit:10;" d="M410.823,240.688c-0.413-3.619-5.954-3.823-5.812,0
				c0.145,3.913,0.108,8.026,0.853,11.877c0.665,3.438,5.758,2.454,5.89-0.797C411.9,248.122,411.236,244.309,410.823,240.688z"/>
			<path style="fill:#FFFFFF;stroke:#000000;stroke-miterlimit:10;" d="M418.857,266.306c-2.662,2.494-5.324,4.987-7.986,7.481
				c-3.176,2.975,1.603,7.74,4.772,4.772c2.662-2.494,5.324-4.987,7.987-7.481C426.805,268.102,422.026,263.338,418.857,266.306z"/>
			<path d="M422.767,286.136c-1.375-1.374-3.381-1.186-4.772,0c-1.862,1.589-3.776,3.102-5.759,4.537
				c-1.474,1.066-2.194,2.935-1.21,4.616c0.852,1.456,3.132,2.284,4.616,1.211c2.447-1.77,4.827-3.632,7.125-5.592
				C424.154,289.724,423.983,287.353,422.767,286.136z"/>
			<path d="M421.97,302.28c-1.376-1.376-3.38-1.185-4.772,0c-1.808,1.538-3.615,3.076-5.423,4.615c-1.389,1.181-1.216,3.556,0,4.771
				c1.376,1.376,3.379,1.185,4.772,0c1.807-1.538,3.615-3.076,5.423-4.614C423.359,305.87,423.186,303.495,421.97,302.28z"/>
			<path style="fill:#FFFFFF;stroke:#000000;stroke-miterlimit:10;" d="M422.82,320.29c-0.04-0.016-0.08-0.031-0.121-0.047
				c-1.271-0.492-3.075,0.281-3.747,1.454c-0.173,0.126-0.347,0.253-0.52,0.379c-0.545,0.397-1.089,0.794-1.634,1.19l-3.267,2.381
				c-1.471,1.072-2.196,2.931-1.211,4.616c0.849,1.452,3.136,2.29,4.616,1.21c1.429-1.042,2.859-2.083,4.288-3.125
				c1.438-1.048,3.502-2.04,3.951-3.909C425.635,322.533,424.571,320.968,422.82,320.29z"/>
			<path d="M406.514,264.162c-1.868-2.039-3.829-3.984-5.883-5.835c-1.353-1.219-3.436-1.336-4.772,0
				c-1.239,1.239-1.359,3.547,0,4.772c2.054,1.851,4.015,3.796,5.883,5.835c1.232,1.344,3.523,1.249,4.772,0
				C407.852,267.595,407.748,265.509,406.514,264.162z"/>
			<path d="M407.714,283.859l-6.883-5.456c-1.427-1.131-3.379-1.393-4.772,0c-1.174,1.174-1.436,3.633,0,4.772l6.883,5.456
				c1.427,1.131,3.379,1.393,4.772,0C408.888,287.456,409.149,284.997,407.714,283.859z"/>
			<path style="fill:#FFFFFF;stroke:#000000;stroke-miterlimit:10;" d="M408.218,298.899l-5.922-3.973
				c-1.514-1.016-3.737-0.293-4.616,1.21c-0.97,1.658-0.307,3.598,1.21,4.616l5.922,3.973c1.514,1.016,3.737,0.293,4.616-1.21
				C410.399,301.857,409.736,299.917,408.218,298.899z"/>
			<path style="fill:#FFFFFF;stroke:#000000;stroke-miterlimit:10;" d="M409.39,319.397c-2.322-1.999-4.73-3.894-7.207-5.698
				c-1.474-1.073-3.762-0.251-4.616,1.211c-0.998,1.707-0.267,3.54,1.21,4.616c2.014,1.466,3.954,3.018,5.841,4.643
				c1.38,1.188,3.415,1.356,4.772,0C410.606,322.952,410.776,320.591,409.39,319.397z"/>
			<path d="M410.325,342.928c-2.038-1.937-4.076-3.874-6.114-5.81c-1.321-1.255-3.46-1.312-4.772,0
				c-1.267,1.267-1.325,3.512,0,4.772c2.038,1.937,4.076,3.874,6.114,5.81c1.321,1.255,3.46,1.312,4.772,0
				C411.592,346.434,411.651,344.188,410.325,342.928z"/>
		</g>
		
			<ellipse transform="matrix(0.7071 -0.7071 0.7071 0.7071 -14.6269 134.1853)" style="fill:#FF8270;" cx="154.663" cy="84.749" rx="27.474" ry="27.474"/>
		<path style="fill:#CFECFF;" d="M259.381,104.134c2.274,0.509,4.487,1.184,6.648,2.85c2.609,2.011,4.586,4.742,7.15,6.811
			c6.241,5.034,15.891,5.264,22.365,0.533c2.601-1.901,4.716-4.492,7.592-5.943c2.771-1.398,5.97-1.598,9.069-1.771
			c9.883-0.554,19.766-1.108,29.649-1.662c5.772-0.324,11.955-0.798,16.471-4.408c1.411-1.128,2.634-2.595,3.075-4.348
			c0.745-2.964-0.909-6.063-3.139-8.153c-3.646-3.417-8.725-4.909-13.701-5.377c-4.975-0.468-9.988-0.025-14.983-0.137
			c-10.221-0.231-8.414-7.67-14.232-13.986c-5.451-5.917-10.632-4.668-17.655-3.644c-4.275,0.623-8.817-1.046-11.671-4.29
			c-1.605-1.824-2.705-4.1-4.569-5.659c-4.234-3.542-12.297-3.8-15.345,0.711c-2.439,3.609-3.664,10.587-9.103,10.7
			c-2.061,0.043-3.958-1.963-6.42-1.806c-2.859,0.182-5.708,1.708-7.247,4.155c-1.585,2.522-2.01,5.882-4.382,7.685
			c-1.378,1.048-3.288,1.352-4.924,0.785c-1.154-0.4-2.129-1.183-3.191-1.786c-5.45-3.092-13.167-0.569-16.122,4.957
			c-2.955,5.526-1.05,13.02,3.921,16.835c4.633,3.556,10.908,3.951,16.746,3.791c5.838-0.16,11.894-0.695,17.333,1.441
			C255,103.314,257.218,103.649,259.381,104.134z"/>
		<path style="fill:#CFECFF;" d="M331.186,167.196c0.332,0.166,0.657,0.35,0.974,0.555c3.37,2.172,5.055,6.135,7.679,9.167
			c4.067,4.699,10.579,7.047,16.756,6.367c6.177-0.681,11.904-4.261,15.516-9.317c1.898-2.658,3.31-5.765,5.883-7.777
			c2.69-2.105,6.288-2.693,9.702-2.567c3.413,0.126,6.771,0.89,10.174,1.183c3.583,0.309,7.211,0.092,10.731-0.643
			c2.889-0.603,5.804-1.61,7.942-3.645c4.235-4.033,3.715-10.334-1.336-13.16c-3.793-2.122-8.339-2.264-12.684-2.353
			c-3.999-0.083-9.987,1.067-13.273-1.554c-2.688-2.145-3.11-5.951-5.233-8.526c-2.471-2.996-6.069-5.077-9.913-5.66
			c-7.145-1.083-9.721,2.378-13.922,7.289c-2.242,2.62-4.578,5.315-7.689,6.802c-3.111,1.488-7.233,1.441-9.623-1.045
			c-1.353-1.408-1.959-3.348-2.839-5.092c-2.352-4.66-7.072-8.129-12.266-8.655c-5.193-0.526-10.659,2.064-13.271,6.583
			c-1.873,3.241-2.505,7.496-5.66,9.509c-2.635,1.681-6.112,1.142-9.045,2.222c-6.038,2.224-7.496,11.391-2.73,15.587
			c2.415,2.126,5.725,2.884,8.913,3.312c3.908,0.525,7.868,0.665,11.804,0.42C322.302,165.915,327.208,165.208,331.186,167.196z"/>
		<path style="fill:#CFECFF;" d="M151.1,110.096c-2.427,3.771,1.883,5.171,2.273,8.318c0.81,6.543-8.61,6.663-12.285,4.872
			c-3.203-1.561-4.569-5.741-7.765-7.102c-4.583-1.951-7.293,4.277-11.122,5.571c-3.028,1.024-6.576-0.789-7.27-4.065
			c-0.605-2.858-0.323-5.251-3.865-5.472c-3.649-0.228-7.309,0.25-10.945-0.364c-3.673-0.62-7.664-4.353-3.418-7.041
			c5.314-3.364,12.298-1.106,18.03-2.942c5.485-1.757,6.791-7.84,11.84-9.535c7.411-2.488,9.005,5.747,13.832,8.764
			c5.598,3.499,12.771-0.463,18.346,3.077c3.045,1.934,1.7,5.118-1.723,5.576C155.057,110.017,152.994,109.483,151.1,110.096z"/>
		<g>
			<path style="fill:#FFFFFF;stroke:#000000;stroke-miterlimit:10;" d="M399.787,231.117c-0.63-1.554-1.614-2.968-2.975-4.098
				c-3.825-3.178-9.548-2.856-14.031-1.418c-1.352,0.434-1.851,0.699-2.499,1.907c-1.542,2.874-3.084,5.748-4.626,8.622l1.329-1.945
				c1.815-0.53,3.598-1.197,5.463-1.507c3.112-0.516,7.167,0.259,7.997,3.841c0.708,3.056-1.554,5.371-4.267,6.2
				c-5.515,1.686-11.511,1.548-16.88,3.654c-2.186,0.857-4.345,2.202-5.335,4.331c-0.307,0.661-0.49,1.376-0.596,2.097
				c-0.198,1.343-0.132,2.744,0.356,4.011c1.028,2.67,4.118,4.164,6.89,3.41c0.916-0.249,2.07-1.017,2.396-1.964
				c0.232-0.673,0.02-1.659-0.447-2.182c-0.254-0.285-0.552-0.545-0.707-0.894c-0.21-0.474-0.114-1.044,0.157-1.486
				c1.261-2.057,5.134-2.133,7.241-2.382c6.788-0.8,14.48-2.245,18.872-8.064C400.708,239.826,401.371,235.026,399.787,231.117z"/>
			<path style="fill:#FFFFFF;stroke:#000000;stroke-miterlimit:10;" d="M298.426,217.972c1.606,28.733,19.689,51.383,41.761,51.383
				c22.072,0,40.155-22.65,41.761-51.383H298.426z"/>
			<ellipse style="fill:#FFFFFF;stroke:#000000;stroke-miterlimit:10;" cx="340.187" cy="217.714" rx="42.312" ry="11.5"/>
			<g>
				<defs>
					<ellipse id="SVGID_1_" cx="340.187" cy="217.714" rx="42.312" ry="11.5"/>
				</defs>
				<clipPath id="SVGID_00000161607825377790868200000000233941775896919730_">
					<use xlink:href="#SVGID_1_"  style="overflow:visible;"/>
				</clipPath>
				
					<ellipse style="clip-path:url(#SVGID_00000161607825377790868200000000233941775896919730_);" cx="340.187" cy="229.056" rx="42.312" ry="11.5"/>
				
					<path style="clip-path:url(#SVGID_00000161607825377790868200000000233941775896919730_);stroke:#FFFFFF;stroke-miterlimit:10;" d="
					M329.879,224.374c-9.964,0.753-16.988,2.565-16.988,4.682c0,2.793,12.221,5.057,27.296,5.057
					c15.075,0,27.296-2.264,27.296-5.057S355.262,224,340.187,224c-0.868,0-1.725,0.008-2.573,0.023"/>
			</g>
			<path style="fill:#FFFFFF;stroke:#000000;stroke-miterlimit:10;" d="M394.006,228.123c1.864,1.459,3.393,3.445,3.933,5.75
				c0.71,3.032-0.483,6.426-2.935,8.346"/>
			<path style="fill:#FFFFFF;stroke:#000000;stroke-miterlimit:10;" d="M376.181,229.875c-2.014,8.795-6.21,17.081-12.109,23.907"/>
			<path style="fill:#FFFFFF;stroke:#000000;stroke-miterlimit:10;" d="M378.165,217.377c-3.524-2.875-7.825-4.683-12.241-5.773
				c-4.416-1.09-8.97-1.494-13.507-1.806"/>
		</g>
		<g>
			<path d="M308.862,372.986H150.922c-6.453,0-11.684-5.231-11.684-11.684V97.879c0-6.453,5.231-11.684,11.684-11.684h157.939
				c6.453,0,11.684,5.231,11.684,11.684v263.424C320.546,367.755,315.314,372.986,308.862,372.986z"/>
			<rect x="142.814" y="103.165" style="fill:#FFFFFF;stroke:#000000;stroke-miterlimit:10;" width="174.155" height="252.852"/>
			<g>
				<line style="fill:none;stroke:#000000;stroke-miterlimit:10;" x1="196.523" y1="163.125" x2="259.924" y2="163.125"/>
				<line style="fill:none;stroke:#000000;stroke-miterlimit:10;" x1="197.079" y1="168.782" x2="260.481" y2="168.782"/>
			</g>
			<g>
				<line style="fill:none;stroke:#000000;stroke-miterlimit:10;" x1="224.33" y1="255.894" x2="305.301" y2="255.894"/>
				<line style="fill:none;stroke:#000000;stroke-miterlimit:10;" x1="225.041" y1="261.551" x2="306.011" y2="261.551"/>
			</g>
			<g>
				<line style="fill:none;stroke:#000000;stroke-miterlimit:10;" x1="224.33" y1="275.126" x2="305.301" y2="275.126"/>
				<line style="fill:none;stroke:#000000;stroke-miterlimit:10;" x1="225.041" y1="280.783" x2="306.011" y2="280.783"/>
			</g>
			<g>
				<line style="fill:none;stroke:#000000;stroke-miterlimit:10;" x1="153.958" y1="312.77" x2="211.994" y2="312.77"/>
				<line style="fill:none;stroke:#000000;stroke-miterlimit:10;" x1="154.467" y1="318.427" x2="212.503" y2="318.427"/>
			</g>
			<g>
				<line style="fill:none;stroke:#000000;stroke-miterlimit:10;" x1="153.958" y1="332.003" x2="211.994" y2="332.003"/>
				<line style="fill:none;stroke:#000000;stroke-miterlimit:10;" x1="154.467" y1="337.659" x2="212.503" y2="337.659"/>
			</g>
			<g>
				<line style="fill:none;stroke:#000000;stroke-miterlimit:10;" x1="224.33" y1="294.359" x2="305.301" y2="294.359"/>
				<line style="fill:none;stroke:#000000;stroke-miterlimit:10;" x1="225.041" y1="300.016" x2="306.011" y2="300.016"/>
			</g>
			<g>
				<line style="fill:none;stroke:#000000;stroke-miterlimit:10;" x1="196.523" y1="180.095" x2="259.924" y2="180.095"/>
				<line style="fill:none;stroke:#000000;stroke-miterlimit:10;" x1="197.079" y1="185.752" x2="260.481" y2="185.752"/>
			</g>
			<g>
				<line style="fill:none;stroke:#000000;stroke-miterlimit:10;" x1="154.662" y1="202.721" x2="258.458" y2="202.721"/>
				<line style="fill:none;stroke:#000000;stroke-miterlimit:10;" x1="155.573" y1="208.378" x2="259.368" y2="208.378"/>
			</g>
			<g>
				<line style="fill:none;stroke:#000000;stroke-miterlimit:10;" x1="154.662" y1="219.691" x2="258.458" y2="219.691"/>
				<line style="fill:none;stroke:#000000;stroke-miterlimit:10;" x1="155.573" y1="225.348" x2="259.368" y2="225.348"/>
			</g>
			<g>
				<line style="fill:none;stroke:#000000;stroke-miterlimit:10;" x1="154.662" y1="236.661" x2="258.458" y2="236.661"/>
				<line style="fill:none;stroke:#000000;stroke-miterlimit:10;" x1="155.573" y1="242.318" x2="259.368" y2="242.318"/>
			</g>
			<rect x="154.255" y="163.125" style="fill:#CFECFF;" width="35.594" height="31.677"/>
			<rect x="154.811" y="256.46" style="fill:#CFECFF;" width="57.84" height="42.991"/>
			<rect x="143.132" y="119.003" style="fill:#FF8270;" width="173.521" height="31.677"/>
			<rect x="270.491" y="163.691" style="fill:#CFECFF;" width="35.594" height="78.191"/>
			<rect x="222.143" y="311.29" style="fill:#CFECFF;" width="83.942" height="29.884"/>
			<g>
				<polyline style="fill:none;stroke:#FFFFFF;stroke-miterlimit:10;" points="185.956,145.024 185.956,126.357 191.517,126.357 
					199.303,136.539 199.303,126.357 				"/>
				<polyline style="fill:none;stroke:#FFFFFF;stroke-miterlimit:10;" points="205.421,126.357 205.421,145.024 198.747,145.024 
					192.073,134.842 192.073,145.024 				"/>
				<polyline style="fill:none;stroke:#FFFFFF;stroke-miterlimit:10;" points="225.443,145.024 210.983,145.024 210.983,126.357 
					225.443,126.357 				"/>
				<polyline style="fill:none;stroke:#FFFFFF;stroke-miterlimit:10;" points="225.443,130.317 215.432,130.317 215.432,133.711 
					225.443,133.711 				"/>
				<polyline style="fill:none;stroke:#FFFFFF;stroke-miterlimit:10;" points="225.443,137.105 215.432,137.105 215.432,140.499 
					225.443,140.499 				"/>
				<polyline style="fill:none;stroke:#FFFFFF;stroke-miterlimit:10;" points="228.78,126.357 234.341,145.024 239.903,145.024 
					243.24,134.842 246.577,145.024 252.138,145.024 258.812,126.357 				"/>
				<polyline style="fill:none;stroke:#FFFFFF;stroke-miterlimit:10;" points="253.25,126.357 249.914,137.105 245.464,126.357 
					239.903,126.357 237.678,137.105 234.341,126.357 				"/>
				<path style="fill:none;stroke:#FFFFFF;stroke-miterlimit:10;" d="M276.106,128.259c-2.942-3.323-9.081-4.859-12.557-1.485
					c-1.82,1.767-2.401,5.014-0.951,7.189c1.558,2.337,4.676,2.49,6.55,4.414c0.488,0.501,0.873,1.192,0.748,1.887
					c-0.157,0.87-1.072,1.324-1.877,1.304c-2.081-0.05-4.37-1.999-5.794-3.376"/>
				<path style="fill:none;stroke:#FFFFFF;stroke-miterlimit:10;" d="M260.669,141.825c2.942,3.323,9.08,4.859,12.557,1.484
					c1.82-1.767,2.401-5.014,0.951-7.189c-1.629-2.444-4.964-2.556-6.742-4.697c-1.578-1.9,0.328-3.508,2.261-2.982
					c2.205,0.6,4.838,2.456,6.41,4.138"/>
			</g>
		</g>
		<g>
			<path style="fill:#FF8270;" d="M143.483,391.643c-0.542,7.462-1.305,14.907-2.289,22.323l-8.576,0.83
				c-0.702-7.066-1.404-14.132-2.106-21.197"/>
			<path d="M132.544,421.584c0.285,0.418,0.716,0.723,1.363,0.865c1.703,0.374,3.847,0.505,5.612,0.675
				c1.842,0.178,3.698,0.04,5.544-0.097c3.293-0.246,6.585-0.491,9.878-0.737c0.782-0.058,1.711-0.214,2.033-0.93
				c0.307-0.684-0.145-1.468-0.665-2.007c-1.417-1.468-3.401-2.227-5.341-2.861c-4.282-1.4-8.692-2.407-13.157-3.005
				c-1.185-0.159-4.189-1.047-5.215-0.096c-1.114,1.033-0.625,4.574-0.585,5.962C132.036,420.222,132.152,421.01,132.544,421.584z"
				/>
			<path style="fill:#FF8270;" d="M90.045,393.061c-1.548,7.611-3.315,15.205-5.298,22.77l-8.687,0.846
				c0.25-7.207,0.501-14.414,0.751-21.621"/>
			<path d="M75.668,423.512c0.285,0.418,0.716,0.723,1.363,0.865c1.703,0.374,3.847,0.505,5.612,0.675
				c1.842,0.178,3.698,0.04,5.544-0.098c3.293-0.246,6.586-0.491,9.878-0.737c0.783-0.058,1.711-0.214,2.033-0.93
				c0.307-0.684-0.145-1.468-0.666-2.007c-1.418-1.468-3.401-2.227-5.341-2.861c-4.282-1.4-8.692-2.407-13.157-3.005
				c-1.185-0.159-4.189-1.047-5.215-0.096c-1.115,1.033-0.625,4.574-0.585,5.962C75.16,422.15,75.276,422.938,75.668,423.512z"/>
			<path style="fill:#FF8270;" d="M137.109,284.955c1.141,6.957,0.88,14.145-0.735,20.981c-0.075,0.317-0.152,0.651-0.063,0.964
				c0.079,0.278,0.277,0.503,0.466,0.722c1.78,2.07,3.132,4.508,3.944,7.115c5.048-7.296,6.889-17.332,6.671-26.06
				c-0.23-9.191-2.952-18.137-7.157-26.268c-0.674-1.303-1.385-2.625-2.473-3.608c-1.93-1.743-6.976-1.909-8.48,0.592
				c-0.962,1.6-0.299,3.652,0.458,5.358c1.294,2.917,2.812,5.732,4.055,8.671C135.358,277.121,136.46,281,137.109,284.955z"/>
			<path style="fill:#FF8270;" d="M158.721,238.352c-0.087,0.108-0.176,0.213-0.268,0.313c-1.345,1.459-3.13,2.419-4.713,3.615
				c-1.004,0.759-1.931,1.617-2.807,2.521c-3.898,4.025-7.42,7.822-12.579,10.196c-5.669,2.609-11.891,3.825-18.174,3.314
				c-0.482-2.057-1.036-4.096-1.52-6.153c-0.296-1.257-1.495-3.614,0.471-3.797c7.501-0.7,14.849-2.939,21.484-6.503
				c6.613-3.553,11.649-8.958,17.34-13.77c0.213-0.18,0.461-0.365,0.739-0.342c0.509,0.043,0.689,0.718,0.589,1.219
				c-0.276,1.374-1.555,2.296-2.218,3.53c-0.132,0.246-0.238,0.554-0.095,0.793c0.095,0.16,0.276,0.243,0.445,0.32
				c0.844,0.382,1.727,0.886,2.073,1.746C159.892,236.362,159.414,237.485,158.721,238.352z"/>
			<path style="fill:#FFFFFF;stroke:#000000;stroke-miterlimit:10;" d="M144.516,347.174c-0.322-3.262-0.645-6.528-1.192-9.761
				c-0.518-3.06-1.635-6.035-2.116-9.052c-1.038-6.518,0.105-13.214-1.477-19.673c-1.622-6.623-4.969-12.673-8.28-18.634
				l-26.303,0.48c-5.971,8.759-11.558,21.313-11.523,32.092c0.011,3.542,0.66,7.431-0.383,10.897
				c-1.162,3.858-3.409,7.119-4.199,11.202c-1.204,6.224-0.768,13.136-4.479,18.276c-1.025,1.419-2.328,2.632-3.247,4.122
				c-2.775,4.505-1.239,11.054-4.711,15.105c-0.963,1.123-2.158,2.035-3.078,3.195c-1.06,1.337-1.711,2.948-2.286,4.554
				c-0.764,2.134-1.419,4.304-2.054,6.48c5.843,1.084,11.757,1.723,17.685,2.162c0.751,0.056,1.505,0.123,2.259,0.191
				c2.421,0.164,4.842,0.335,7.263,0.503c0.424,0.029,0.847,0.059,1.271,0.088c0.09,0.001,0.181,0.009,0.271,0.01
				c1.417,0.014,2.827-0.078,4.234-0.13c5.057-16.802,10.663-33.433,15.789-50.214c0.722,4.709,1.379,9.498,2.066,14.238
				c0.18,1.237,0.358,2.511,0.054,3.723c-0.232,0.928-0.734,1.764-1.084,2.655c-0.886,2.255-0.77,4.764-0.588,7.18
				c0.055,0.722,0.112,1.464-0.094,2.158c-0.166,0.559-0.492,1.054-0.742,1.581c-0.711,1.499-1.575,17.206-0.687,17.228
				c10.609,0.27,21.239-0.287,31.761-1.666C147.508,379.779,146.129,363.513,144.516,347.174z"/>
			<path style="fill:#FFFFFF;stroke:#000000;stroke-width:0.75;stroke-miterlimit:10;" d="M118.691,218.551
				c0.994,1.572,1.924,3.184,2.788,4.831c-0.7,0.111-1.4,0.221-2.1,0.332c-0.191,0.03-0.439,0.226-0.291,0.352"/>
			<path style="fill:#FF8270;" d="M117.78,234.704c-0.113-1.1-0.228-2.2-0.335-3.3c-0.027-0.279-0.054-0.564,0.013-0.837
				c0.098-0.404,0.387-0.729,0.635-1.063c0.59-0.794,1.003-1.711,1.277-2.696c-0.113-0.066-0.228-0.128-0.334-0.221
				c-0.162-0.141-0.171-0.41-0.073-0.584c0.144-0.255,0.329-0.456,0.539-0.659c0.056-0.055,0.119-0.083,0.183-0.098
				c0.348-2.602-0.065-5.451-0.676-7.69c-0.351-1.287-0.642-2.909-1.753-3.784c-0.641-0.505-1.51-0.654-2.319-0.55
				c-3.544,0.456-6.288,3.119-7.356,6.434c-0.715,2.218-0.823,4.581-0.883,6.91c-0.15,5.778-0.042,11.559,0.066,17.337
				c0.011,0.561,0.099,1.243,0.619,1.46c0.769,0.318,1.504,0.828,2.315,1.025c1.904,0.462,3.915-0.286,5.534-1.39
				c0.745,0,1.951-1.76,2.316-2.3c0.661-0.978,0.82-1.57,0.727-2.743C118.137,238.204,117.96,236.454,117.78,234.704z"/>
			<path d="M116.082,210.109c0.346-0.363,0.687-0.731,1.109-0.997c1.311-0.825,3.199-0.376,4.158,0.84
				c0.96,1.216,1.018,3.005,0.326,4.39c-0.692,1.386-2.041,2.375-3.516,2.847c-2.206,0.706-6.959,1.146-5.916,4.811
				c-0.939-0.364-2.128,0.297-2.316,1.286c-0.226,1.189,0.892,1.295,1.336,2.143c0.538,1.027,0.161,2.819-0.344,3.779
				c-0.576,1.094-1.597,1.945-2.776,2.314c-2.29,0.717-3.84-1.689-4.414-3.625c-0.983-3.316,0.289-6.08,0.636-9.303
				c-0.791,0.196-1.496,2.442-1.868,3.236c-0.603,1.29-1.176,2.595-1.759,3.894c-1.135,2.526-2.303,5.045-3.761,7.404
				c-1.424,2.302-3.146,4.501-5.455,5.914c-1.439,0.881-3.225,1.433-4.817,0.871c-1.441-0.508-2.464-1.865-2.898-3.33
				c-0.434-1.465-0.354-3.033-0.141-4.546c0.711-5.045,2.879-9.86,6.094-13.811c2.143-2.634,4.877-4.963,8.173-5.776
				c2.501-0.617,5.382-0.197,7.454,1.391c0.329,0.252,0.962,1.188,1.331,1.263c0.707,0.142,0.705-0.526,1.08-1.086
				c0.727-1.087,1.867-1.909,3.148-2.197c1.377-0.31,2.92-0.069,4.117-0.816C115.449,210.766,115.767,210.44,116.082,210.109z"/>
			<g>
				<path d="M130.383,272.34c2.608-3.047,5.216-6.094,7.824-9.14c1.548-1.809,2.037-2.13,0.983-4.31
					c-0.676-1.398-1.404-2.772-2.191-4.111c-3.184-5.422-7.402-10.551-12.987-13.618c-1.61-0.884-3.341-1.59-5.16-1.844
					c-3.987-0.556-9.387,0.487-12.572,2.973c-3.632,2.835-6.67,6.574-8.134,10.987c-1.765,5.32-0.957,11.637,2.793,15.804
					c0.992,1.102,2.233,2.107,2.606,3.579c0.464,1.828,0.371,4.01,0.508,5.89c0.293,4.013,0.475,8.034,0.537,12.056
					c0.002,0.119,0.046,0.208,0.104,0.281c0.076,0.12,0.196,0.212,0.373,0.226c4.805,0.371,9.604,0.086,14.414,0.04
					c0.44-0.004,0.887,0.01,1.335,0.028c0.1,0.003,0.2,0.006,0.3,0.009c3.659,0.178,7.526,0.907,11.04,0.168
					c0.195-0.041,0.292-0.167,0.329-0.323c0.033-0.16-0.019-0.337-0.136-0.462c-2.15-7.324-5.021-15.652-5.175-23.279
					c0.591,0.915,1.183,1.829,1.775,2.744C129.378,270.838,129.835,271.619,130.383,272.34z"/>
				<path d="M105.169,290.75c-0.031-0.127-0.05-0.261-0.078-0.39c-0.006,0-0.011,0-0.016-0.001
					C105.107,290.49,105.138,290.62,105.169,290.75z"/>
			</g>
			<path style="fill:none;stroke:#000000;stroke-miterlimit:10;" d="M110.185,303.532c-1.572,3.114-1.867,6.775-1.252,10.209
				c0.615,3.434,2.093,6.665,3.905,9.646c2.19,3.603,1.859,8.083,2.692,12.078c1.005,4.823,1.877,9.673,2.621,14.543"/>
			<path style="fill:#FF8270;" d="M135.662,305.658c-0.338,0.522-0.726,1.05-0.796,1.668c-0.045,0.395,0.045,0.791,0.152,1.174
				c0.752,2.706,2.503,5.041,4.189,7.246c3.711-3.284,5.512-8.248,6.294-13.141c0.152-0.951,0.261-1.973-0.166-2.836
				c-0.428-0.865-1.338-1.413-2.278-1.633c-2.454-0.573-4.379-0.031-5.436,2.275C136.85,302.089,136.672,304.096,135.662,305.658z"
				/>
			<path style="fill:none;stroke:#000000;stroke-miterlimit:10;" d="M140.482,317.077c0.187,0.088-0.201,0.208-0.335,0.05
				c-2.992-3.498-5.103-7.745-6.083-12.243"/>
			<path style="fill:none;stroke:#000000;stroke-width:0.75;stroke-miterlimit:10;" d="M117.429,230.573
				c-0.747,0.722-1.823,1.089-2.856,0.973"/>
			<g>
				<defs>
					<path id="SVGID_00000163041929692516155930000009750196517520749996_" d="M144.516,347.174
						c-0.322-3.262-0.645-6.528-1.192-9.761c-0.518-3.06-1.635-6.035-2.116-9.052c-1.038-6.518,0.105-13.214-1.477-19.673
						c-1.622-6.623-4.969-12.673-8.28-18.634l-26.303,0.48c-5.971,8.759-11.558,21.313-11.523,32.092
						c0.011,3.542,0.66,7.431-0.383,10.897c-1.162,3.858-3.409,7.119-4.199,11.202c-1.204,6.224-0.768,13.136-4.479,18.276
						c-1.025,1.419-2.328,2.632-3.247,4.122c-2.775,4.505-1.239,11.054-4.711,15.105c-0.963,1.123-2.158,2.035-3.078,3.195
						c-1.06,1.337-1.711,2.948-2.286,4.554c-0.764,2.134-1.419,4.304-2.054,6.48c5.843,1.084,11.757,1.723,17.685,2.162
						c0.751,0.056,1.505,0.123,2.259,0.191c2.421,0.164,4.842,0.335,7.263,0.503c0.424,0.029,0.847,0.059,1.271,0.088
						c0.09,0.001,0.181,0.009,0.271,0.01c1.417,0.014,2.827-0.078,4.234-0.13c5.057-16.802,10.663-33.433,15.789-50.214
						c0.722,4.709,1.379,9.498,2.066,14.238c0.18,1.237,0.358,2.511,0.054,3.723c-0.232,0.928-0.734,1.764-1.084,2.655
						c-0.886,2.255-0.77,4.764-0.588,7.18c0.055,0.722,0.112,1.464-0.094,2.158c-0.166,0.559-0.492,1.054-0.742,1.581
						c-0.711,1.499-1.575,17.206-0.687,17.228c10.609,0.27,21.239-0.287,31.761-1.666
						C147.508,379.779,146.129,363.513,144.516,347.174z"/>
				</defs>
				<clipPath id="SVGID_00000078764781574131770980000005153313836333792159_">
					<use xlink:href="#SVGID_00000163041929692516155930000009750196517520749996_"  style="overflow:visible;"/>
				</clipPath>
				<g style="clip-path:url(#SVGID_00000078764781574131770980000005153313836333792159_);">
					<path d="M133.308,389.219c-1.354-1.354-4.136-1.626-5.453,0c-1.808,2.231-3.342,4.563-4.461,7.214
						c-0.809,1.917-0.576,4.13,1.383,5.276c1.616,0.945,4.461,0.546,5.276-1.383c0.46-1.09,0.976-2.15,1.576-3.171
						c0.527-0.897,1.205-1.897,1.68-2.483C134.618,393.055,134.889,390.799,133.308,389.219z"/>
					<path d="M148.317,363.06c-2.296-1.713-5.856-1.436-8.796-1.122c-1.168,0.125-2.363,0.393-3.304,1.095
						c-0.942,0.702-1.571,1.925-1.286,3.065c0.398,1.597,2.213,2.286,3.564,3.226c1.776,1.237,3.005,3.228,4.971,4.133
						c5.449,2.506,8.269-3.506,6.695-7.842C149.747,364.475,149.107,363.65,148.317,363.06z"/>
					<path d="M152.754,385.422c-0.343-1.481-1.489-2.38-2.854-2.863c-0.528-0.187-1.091-0.196-1.64-0.092
						c-1.935-0.533-3.885-1.365-5.737-1.963c-1.981-0.64-4.209,0.748-4.743,2.693c-0.573,2.087,0.704,4.101,2.693,4.743
						c1.633,0.527,3.266,1.055,4.898,1.582c1.949,0.629,3.629,1.265,5.61,0.254C152.537,388.984,153.125,387.022,152.754,385.422z"
						/>
					<path d="M129.868,375.288c-0.069-0.423-0.209-0.83-0.436-1.207c-0.678-1.129-2.011-1.739-3.323-1.86
						c-3.475-0.32-8.023,2.172-11.044,3.701c-1.858,0.94-2.389,3.556-1.383,5.276c1.59,2.719,3.898,1.568,6.189,0.952
						c2.3-0.619,5.425-0.128,7.481-1.27c0.822-0.457,1.395-1.261,1.822-2.098C129.72,377.712,130.057,376.442,129.868,375.288z"/>
					<path d="M124.257,342.278c-2.764,4.734-4.012,11.857,1.209,13.292c3.322,0.913,5.43-2.52,5.302-5.529
						c-0.056-1.328-0.405-2.644-0.301-3.969c0.096-1.218,0.568-2.371,0.833-3.564s0.292-2.536-0.413-3.534
						C129.188,336.571,126.306,338.768,124.257,342.278z"/>
					<path d="M149.169,344.055c-2.575-2.475-13.765-8.69-12.951,0.063c0.17,1.83,1.496,3.316,2.772,4.64
						c1.487,1.543,2.998,3.063,4.533,4.559c0.877,0.855,1.932,1.764,3.15,1.64c1.286-0.131,2.159-1.364,2.671-2.551
						C150.373,350.017,151.329,346.13,149.169,344.055z"/>
					<path d="M124.271,316.756c-2.024-0.878-4.326-1.454-5.498-1.89c-0.732-0.272-1.484-0.549-2.265-0.54
						c-3.152,0.032-3.778,3.867-2.601,6.174c1.856,3.638,10.829,7.864,13.434,3.235C129.08,320.642,127.046,317.96,124.271,316.756z
						"/>
					<path d="M126.995,302.236c1.013-2.474,1.838-5.506,0.438-7.322c-1.517-1.967-4.577-1.611-5.682,0.607
						c-0.51,1.024-0.748,2.209-1.505,3.067c-0.713,0.809-1.813,1.233-2.426,2.12c-0.344,0.497-0.503,1.099-0.59,1.697
						c-0.22,1.508,0.009,3.127,0.882,4.376c0.874,1.249,2.458,2.044,3.952,1.745c1.803-0.361,2.978-2.083,3.774-3.74
						C126.17,304.092,126.597,303.207,126.995,302.236z"/>
					<path d="M149.391,324.046c0.38-1.576-0.264-3.049-2.612-3.469c-3.461-0.62-9.459,2.254-11.742,4.629
						c-1.483,1.543-2.527,4.079-1.181,5.743c1.142,1.411,3.371,1.318,5.023,0.564c2.703-1.234,6.799-2.624,8.927-4.786
						C148.594,325.925,149.168,324.968,149.391,324.046z"/>
					<path d="M109.044,354.497c-0.132-1.228-0.724-2.381-1.793-2.962c-1.168-0.634-2.59-0.467-3.9-0.693
						c-2.752-0.475-5.696-2.514-8.238-0.12c-1.78,1.677-1.591,4.712,0.699,6.032c1.567,0.904,3.135,1.807,4.703,2.711
						c3.702,2.134,7.076,1.289,8.359-3.041C109.056,355.81,109.113,355.143,109.044,354.497z"/>
					<path d="M115.252,331.814c-1.436-0.669-3.067-0.393-4.362,0.719c-0.114,0.101-0.232,0.197-0.35,0.294
						c-0.045,0.032-0.112,0.079-0.221,0.16c-0.34,0.212-0.667,0.441-1.015,0.643c-0.347,0.201-0.707,0.375-1.062,0.561
						c-0.072,0.033-0.116,0.053-0.163,0.074c-0.167,0.064-0.334,0.128-0.504,0.186c-1.896,0.674-3.367,2.661-2.693,4.743
						c0.605,1.869,2.709,3.417,4.743,2.693c2.4-0.854,4.475-2.052,6.42-3.667C115.732,336.09,115.455,333.956,115.252,331.814z"/>
					<path d="M99.576,318.762c-0.944-0.361-1.983-0.44-2.956-0.127c-2.355,0.756-6.3,0.472-6.997,3.53
						c-0.435,1.909,0.576,4.329,2.693,4.743c3.615,0.707,10.851,2.24,10.509-4.004C102.723,321.032,101.309,319.424,99.576,318.762z
						"/>
					<path d="M106.636,303.484c-1.998-3.718-10.945-7.126-11.869-0.923c-0.391,2.622,3.661,4.808,5.317,6.538
						c3.287,3.434,8.243-1.544,6.726-5.25C106.759,303.728,106.701,303.606,106.636,303.484z"/>
					<path d="M89.777,368.033c-1.218-2.462-2.381-4.95-3.487-7.464c-0.839-1.906-3.625-2.349-5.276-1.383
						c-1.966,1.15-2.225,3.362-1.383,5.276c1.106,2.514,2.268,5.002,3.487,7.464c0.924,1.866,3.567,2.383,5.276,1.383
						C90.296,372.197,90.705,369.906,89.777,368.033z"/>
					<path d="M102.92,367.779c-1.318-0.393-2.868,0.098-4.097,0.826c-0.787,0.467-1.545,1.05-1.976,1.858
						c-0.504,0.946-0.498,2.073-0.773,3.109c-0.437,1.644-1.572,3.026-2.064,4.655c-1.531,5.066,6.255,9.301,8.286,3.649
						c1.152-3.206,2.848-6.859,2.948-10.314c0.038-1.316-0.458-2.725-1.566-3.436C103.438,367.971,103.183,367.857,102.92,367.779z"
						/>
					<path d="M84.089,385.492c-0.782-0.242-1.618-0.268-2.375,0.004c-1.823,0.656-2.595,2.748-3.821,4.248
						c-1.396,1.709-3.659,2.995-3.897,5.189c-0.231,2.126,2.473,6.184,4.567,6.759c2.189,0.601,3.977-0.748,4.743-2.693
						c1.06-2.691,4.165-7.559,3.712-10.454C86.797,387.131,85.536,385.94,84.089,385.492z"/>
					<path d="M104.261,396.169c-0.453-0.263-0.899-0.543-1.321-0.854c-0.062-0.056-0.234-0.203-0.339-0.297
						c-0.22-0.197-0.434-0.4-0.641-0.611c-0.166-0.168-0.327-0.341-0.484-0.518c0.007,0.008-0.27-0.336-0.38-0.465
						c-0.106-0.156-0.278-0.405-0.303-0.445c-0.193-0.298-0.369-0.605-0.542-0.914c-0.985-1.762-3.549-2.497-5.276-1.383
						c-1.783,1.15-2.437,3.391-1.383,5.276c1.596,2.855,3.953,5.228,6.779,6.871c1.745,1.014,4.301,0.461,5.276-1.383
						C106.619,399.6,106.124,397.252,104.261,396.169z"/>
					<path d="M96.273,336.307c-0.097-0.03-0.82-0.29-0.937-0.317c-0.312-0.139-0.62-0.287-0.92-0.448
						c-0.364-0.196-0.721-0.406-1.068-0.632c-0.198-0.129-0.393-0.262-0.585-0.4c0.307,0.25,0.287,0.234-0.06-0.049
						c-1.561-1.272-3.946-1.641-5.453,0c-1.294,1.41-1.67,4.093,0,5.453c2.117,1.724,4.357,3.008,6.973,3.829
						c1.925,0.604,4.292-0.712,4.743-2.693C99.444,338.952,98.335,336.954,96.273,336.307z"/>
				</g>
			</g>
		</g>
		<g>
			<path style="fill:#FFFFFF;stroke:#000000;stroke-miterlimit:10;" d="M349.17,170.24h-49.11l-9.955,7.337v-24.072
				c0-6.562,5.319-11.881,11.881-11.881h47.184c7.902,0,14.308,6.406,14.308,14.308v0C363.478,163.835,357.072,170.24,349.17,170.24
				z"/>
			<g>
				<path d="M315.801,152.116c0.174-0.033,0.321-0.055,0.441-0.065c0.121-0.01,0.244-0.015,0.371-0.015
					c0.135,0,0.275,0.005,0.422,0.015c0.148,0.01,0.314,0.032,0.503,0.065l-1.728,7.167c-0.1,0.02-0.229,0.04-0.386,0.06
					c-0.157,0.02-0.329,0.03-0.517,0.03c-0.187,0-0.37-0.012-0.547-0.035c-0.178-0.023-0.297-0.041-0.357-0.055l-0.954-4.156
					l-1.014,4.156c-0.06,0.014-0.172,0.032-0.336,0.055c-0.165,0.023-0.34,0.035-0.527,0.035c-0.187,0-0.355-0.01-0.502-0.03
					c-0.148-0.02-0.271-0.04-0.372-0.06l-1.696-7.158c0.187-0.033,0.368-0.057,0.542-0.07c0.174-0.014,0.328-0.02,0.461-0.02
					c0.127,0,0.26,0.005,0.397,0.015c0.137,0.01,0.292,0.032,0.466,0.065l0.833,4.588c0.168-0.736,0.335-1.504,0.503-2.304
					c0.167-0.799,0.331-1.561,0.491-2.283c0.12-0.02,0.254-0.039,0.402-0.055c0.147-0.016,0.297-0.025,0.452-0.025
					c0.134,0,0.27,0.008,0.411,0.025c0.14,0.017,0.261,0.035,0.362,0.055l1.044,4.638L315.801,152.116z"/>
				<path d="M317.978,155.73c0-0.535,0.062-1.032,0.185-1.491c0.124-0.459,0.315-0.855,0.572-1.189
					c0.258-0.335,0.586-0.597,0.984-0.788c0.398-0.191,0.872-0.286,1.421-0.286c0.549,0,1.02,0.096,1.416,0.286
					c0.395,0.191,0.721,0.453,0.978,0.788c0.258,0.335,0.449,0.731,0.572,1.189c0.124,0.458,0.186,0.955,0.186,1.491
					c0,0.536-0.062,1.029-0.186,1.481c-0.123,0.452-0.314,0.843-0.572,1.174c-0.257,0.331-0.584,0.589-0.978,0.773
					c-0.395,0.184-0.867,0.276-1.416,0.276c-0.549,0-1.022-0.092-1.421-0.276c-0.398-0.184-0.726-0.441-0.984-0.773
					c-0.257-0.331-0.448-0.723-0.572-1.174C318.041,156.759,317.978,156.266,317.978,155.73z M322.426,155.73
					c0-1.459-0.425-2.188-1.275-2.188c-0.87,0-1.305,0.73-1.305,2.188c0,0.73,0.105,1.273,0.316,1.632
					c0.21,0.358,0.537,0.537,0.978,0.537C321.997,157.898,322.426,157.175,322.426,155.73z"/>
				<path d="M325.116,155.73c0-0.535,0.062-1.032,0.186-1.491c0.124-0.459,0.315-0.855,0.572-1.189
					c0.258-0.335,0.586-0.597,0.984-0.788c0.398-0.191,0.872-0.286,1.421-0.286c0.549,0,1.021,0.096,1.416,0.286
					c0.395,0.191,0.721,0.453,0.978,0.788c0.258,0.335,0.449,0.731,0.572,1.189c0.124,0.458,0.186,0.955,0.186,1.491
					c0,0.536-0.062,1.029-0.186,1.481c-0.123,0.452-0.314,0.843-0.572,1.174c-0.257,0.331-0.584,0.589-0.978,0.773
					c-0.395,0.184-0.867,0.276-1.416,0.276c-0.549,0-1.022-0.092-1.421-0.276c-0.398-0.184-0.726-0.441-0.984-0.773
					c-0.257-0.331-0.448-0.723-0.572-1.174C325.178,156.759,325.116,156.266,325.116,155.73z M329.563,155.73
					c0-1.459-0.425-2.188-1.275-2.188c-0.87,0-1.305,0.73-1.305,2.188c0,0.73,0.105,1.273,0.316,1.632
					c0.21,0.358,0.537,0.537,0.978,0.537C329.135,157.898,329.563,157.175,329.563,155.73z"/>
				<path d="M339.071,152.116c0.174-0.033,0.321-0.055,0.441-0.065c0.12-0.01,0.244-0.015,0.371-0.015
					c0.135,0,0.275,0.005,0.422,0.015c0.148,0.01,0.314,0.032,0.503,0.065l-1.727,7.167c-0.1,0.02-0.229,0.04-0.386,0.06
					c-0.157,0.02-0.329,0.03-0.517,0.03c-0.187,0-0.37-0.012-0.547-0.035c-0.178-0.023-0.297-0.041-0.357-0.055l-0.954-4.156
					l-1.014,4.156c-0.06,0.014-0.172,0.032-0.336,0.055c-0.165,0.023-0.34,0.035-0.527,0.035c-0.187,0-0.355-0.01-0.502-0.03
					c-0.148-0.02-0.271-0.04-0.372-0.06l-1.697-7.158c0.187-0.033,0.368-0.057,0.542-0.07c0.174-0.014,0.328-0.02,0.461-0.02
					c0.127,0,0.26,0.005,0.397,0.015c0.137,0.01,0.292,0.032,0.466,0.065l0.833,4.588c0.168-0.736,0.335-1.504,0.503-2.304
					c0.167-0.799,0.331-1.561,0.491-2.283c0.12-0.02,0.254-0.039,0.402-0.055c0.147-0.016,0.298-0.025,0.452-0.025
					c0.134,0,0.27,0.008,0.411,0.025c0.14,0.017,0.261,0.035,0.362,0.055l1.044,4.638L339.071,152.116z"/>
				<path d="M342.352,157.537c0.134,0,0.269,0.007,0.407,0.02c0.138,0.013,0.282,0.033,0.437,0.06
					c0.02,0.154,0.037,0.299,0.05,0.436c0.013,0.137,0.021,0.27,0.021,0.397s-0.008,0.261-0.021,0.402
					c-0.013,0.141-0.03,0.288-0.05,0.441c-0.154,0.027-0.299,0.047-0.437,0.06c-0.137,0.014-0.273,0.02-0.407,0.02
					c-0.134,0-0.269-0.007-0.407-0.02c-0.137-0.013-0.282-0.034-0.437-0.06c-0.02-0.154-0.037-0.301-0.05-0.441
					c-0.013-0.141-0.02-0.274-0.02-0.402s0.007-0.259,0.02-0.397c0.013-0.137,0.03-0.282,0.05-0.436
					c0.154-0.027,0.3-0.047,0.437-0.06C342.083,157.543,342.219,157.537,342.352,157.537z M341.459,152.096
					c0.161-0.027,0.316-0.043,0.467-0.05c0.151-0.007,0.293-0.01,0.426-0.01c0.134,0,0.275,0.003,0.422,0.01
					c0.147,0.007,0.304,0.024,0.472,0.05l-0.09,4.678c-0.167,0.034-0.314,0.057-0.441,0.071c-0.127,0.013-0.248,0.02-0.362,0.02
					c-0.207,0-0.475-0.03-0.803-0.09L341.459,152.096z"/>
			</g>
		</g>
		<g>
			<path style="fill:#FFFFFF;stroke:#000000;stroke-miterlimit:10;" d="M137.114,189.188H169.8l9.633,10.277v-22.973
				c0-7.012-5.684-12.696-12.696-12.696h-29.623c-7.012,0-12.695,5.684-12.695,12.696l0,0
				C124.419,183.504,130.103,189.188,137.114,189.188z"/>
			<g>
				<path d="M138.767,174.493h-1.676c-0.06-0.288-0.09-0.552-0.09-0.793c0-0.221,0.03-0.478,0.09-0.773h5.13
					c0.027,0.147,0.047,0.284,0.06,0.411c0.013,0.128,0.02,0.248,0.02,0.361c0,0.221-0.027,0.485-0.081,0.793h-1.677v5.622
					c-0.354,0.06-0.649,0.09-0.883,0.09c-0.248,0-0.546-0.03-0.894-0.09V174.493z"/>
				<path d="M142.562,176.56c0-0.535,0.062-1.032,0.186-1.491c0.124-0.458,0.314-0.855,0.572-1.189
					c0.257-0.335,0.585-0.597,0.984-0.788c0.398-0.191,0.871-0.286,1.42-0.286c0.549,0,1.02,0.096,1.416,0.286
					c0.395,0.191,0.721,0.453,0.979,0.788c0.257,0.335,0.448,0.731,0.572,1.189c0.123,0.458,0.186,0.956,0.186,1.491
					c0,0.536-0.062,1.029-0.186,1.481c-0.124,0.452-0.315,0.843-0.572,1.174c-0.258,0.331-0.584,0.589-0.979,0.773
					c-0.395,0.184-0.867,0.276-1.416,0.276c-0.549,0-1.022-0.092-1.42-0.276c-0.398-0.184-0.726-0.441-0.984-0.773
					c-0.258-0.331-0.449-0.723-0.572-1.174C142.624,177.589,142.562,177.096,142.562,176.56z M147.009,176.56
					c0-1.459-0.425-2.188-1.275-2.188c-0.87,0-1.305,0.73-1.305,2.188c0,0.73,0.105,1.273,0.316,1.632
					c0.211,0.358,0.537,0.537,0.979,0.537C146.58,178.729,147.009,178.006,147.009,176.56z"/>
				<path d="M151.888,172.806c1.265,0,2.225,0.316,2.881,0.949c0.656,0.633,0.984,1.574,0.984,2.826
					c0,1.271-0.335,2.203-1.004,2.796c-0.669,0.593-1.66,0.889-2.972,0.889c-0.335,0-0.658-0.015-0.969-0.045
					c-0.311-0.03-0.618-0.065-0.918-0.105v-7.167c0.1-0.014,0.227-0.029,0.381-0.045c0.154-0.017,0.321-0.032,0.502-0.045
					c0.181-0.014,0.367-0.025,0.557-0.035C151.521,172.811,151.707,172.806,151.888,172.806z M151.667,178.689
					c0.047,0.007,0.1,0.01,0.16,0.01c0.06,0,0.124,0,0.191,0c0.261,0,0.507-0.032,0.738-0.096c0.231-0.064,0.43-0.176,0.597-0.336
					c0.168-0.16,0.3-0.378,0.397-0.652c0.097-0.274,0.145-0.626,0.145-1.054c0-0.421-0.05-0.773-0.151-1.054
					c-0.1-0.281-0.233-0.504-0.396-0.667c-0.164-0.164-0.356-0.281-0.577-0.352c-0.221-0.07-0.451-0.105-0.692-0.105
					c-0.134,0-0.231,0.002-0.291,0.005c-0.06,0.003-0.1,0.005-0.12,0.005V178.689z"/>
				<path d="M157.75,180.124c-0.154,0.027-0.295,0.047-0.422,0.06c-0.127,0.014-0.251,0.02-0.371,0.02s-0.259-0.008-0.417-0.025
					c-0.157-0.017-0.333-0.042-0.527-0.075l2.249-7.168c0.174-0.02,0.336-0.037,0.487-0.05c0.151-0.014,0.303-0.02,0.457-0.02
					c0.127,0,0.266,0.007,0.417,0.02c0.151,0.013,0.322,0.03,0.517,0.05l2.218,7.178c-0.381,0.06-0.716,0.09-1.003,0.09
					c-0.134,0-0.268-0.007-0.402-0.02c-0.134-0.013-0.278-0.034-0.432-0.06l-0.381-1.395c-0.187,0.054-0.366,0.094-0.537,0.12
					c-0.171,0.027-0.34,0.04-0.507,0.04c-0.154,0-0.311-0.012-0.472-0.035c-0.161-0.023-0.328-0.058-0.502-0.105L157.75,180.124z
					 M159.156,174.824l-0.673,2.58c0.114,0.033,0.221,0.06,0.321,0.08c0.1,0.02,0.204,0.03,0.311,0.03
					c0.113,0,0.226-0.008,0.336-0.025c0.111-0.017,0.226-0.042,0.346-0.075L159.156,174.824z"/>
				<path d="M165.852,172.947c0.154-0.027,0.314-0.047,0.481-0.06c0.168-0.014,0.338-0.02,0.512-0.02
					c0.114,0,0.261,0.008,0.442,0.025c0.181,0.017,0.335,0.035,0.462,0.056l-2.239,4.608v2.56c-0.354,0.06-0.649,0.09-0.883,0.09
					c-0.248,0-0.546-0.03-0.893-0.09v-2.56c-0.174-0.362-0.357-0.738-0.547-1.13c-0.191-0.391-0.381-0.783-0.572-1.174
					c-0.191-0.392-0.38-0.783-0.567-1.174c-0.188-0.392-0.368-0.768-0.542-1.129c0.114-0.02,0.267-0.039,0.462-0.056
					c0.194-0.016,0.378-0.025,0.552-0.025c0.141,0,0.296,0.008,0.467,0.025c0.17,0.017,0.32,0.035,0.447,0.056l1.235,2.79
					L165.852,172.947z"/>
			</g>
		</g>
		<g>
			<g>
				<g id="XMLID_389_">
					<g id="XMLID_230_">
						<path id="XMLID_1658_" style="fill:#FF8270;" d="M321.96,319.245c-3.032,2.501-4.961,7.972-4.332,11.842
							c0.223,1.373,0.696,2.712,0.739,4.103c0.059,1.897-0.686,3.747-0.665,5.645c0.018,1.676,0.632,3.288,1.354,4.801
							c0.774,1.621,1.694,3.194,2.931,4.496c1.463,1.54,3.313,2.647,5.137,3.734c2.645,1.576,9.571,7.414,12.748,4.744
							c1.408-1.184,0.955-3.428,0.307-5.15c-0.953-2.532-2.064-5.008-3.393-7.365c-1.287-2.284-3.059-4.212-4.395-6.452
							c-2.873-4.819-2.148-10.904-3.535-16.341c-0.323-1.265-0.778-2.528-1.603-3.54C325.784,317.96,323.728,317.786,321.96,319.245
							z"/>
					</g>
				</g>
				<g id="XMLID_401_">
					<g id="XMLID_194_">
						<path id="XMLID_1673_" style="fill:#FF8270;" d="M421.157,397.27c-0.298,0.633-0.444,1.34-0.486,2.042
							c-0.09,1.519,0.296,3.062,1.091,4.359c1.135,1.854,3.038,3.136,5.066,3.919c2.027,0.783,4.196,1.116,6.345,1.444
							c4.204,0.641,9.12,1.634,13.359,0.725c3.062-0.657,4.897-5.807,2.423-8.006c-0.687-0.61-1.594-0.901-2.483-1.133
							c-2.435-0.636-4.847-0.6-7.185-1.482c-2.753-1.039-5.506-2.079-8.259-3.118c-1.307-0.493-2.626-0.99-4.008-1.197
							c-2.016-0.302-4.332,0.167-5.507,1.832C421.375,396.85,421.257,397.056,421.157,397.27z"/>
					</g>
				</g>
				<g id="XMLID_192_">
					<g id="XMLID_225_">
						<path d="M449.875,413.32c-0.302,0.436-0.677,0.794-1.16,0.975c-1.777,0.666-4.56-0.933-6.21-1.712
							c-1.665-0.786-4.003-1.675-1.936-3.625c0.629-0.593,1.25-1.182,1.76-1.897c0.725-1.019,1.285-2.205,1.376-3.521
							c0.079-1.233-1.004-2.857-0.298-3.861c0.55-0.783,1.675-0.802,2.455-1.189c0.917-0.455,1.622-1.181,2.338-1.937
							c1.659-1.753,3.054-3.761,4.568-5.65c0.404-0.504,0.826-1.009,1.374-1.332c0.548-0.323,1.251-0.439,1.842-0.139
							c1.551,0.785,1.431,3.955,1.313,5.448c-0.214,2.699-1.174,5.465-2.256,7.851c-0.699,1.542-1.755,2.83-2.619,4.258
							c-0.947,1.565-1.192,3.371-1.893,5.073C450.35,412.496,450.14,412.938,449.875,413.32z"/>
					</g>
				</g>
				<g id="XMLID_188_">
					<g id="XMLID_189_">
						<path d="M319.563,309.848c2.338,0.921,4.512,2.005,6.394,3.726c0.697,0.816,1.315,1.688,1.87,2.611
							c2.288,5.231,3.105,11.936,3.105,11.936s-13.762,3.416-15.859,2.754C313.256,324.472,312.241,310.736,319.563,309.848z"/>
					</g>
				</g>
				<g id="XMLID_191_">
					<g id="XMLID_228_">
						<path style="fill:#FF8270;" d="M316.776,310.015c-0.264-0.227-0.541-0.44-0.82-0.65c-0.166,0.059-0.36,0.036-0.509-0.135
							c-0.354-0.404-0.742-0.748-1.138-1.072c-0.416-0.304-0.821-0.62-1.208-0.954c-0.131-0.104-0.258-0.212-0.385-0.319
							c-0.368-0.285-0.692-0.594-0.95-0.936c-0.026-0.032-0.049-0.068-0.075-0.101c-0.041-0.059-0.086-0.117-0.123-0.179
							c-0.262-0.363-0.496-0.759-0.663-1.236c-0.786-2.245-0.849-4.862-0.642-7.29c-0.469-0.059-0.947-0.041-1.456-0.068
							c-1.117-0.061-2.227-0.212-3.337-0.346c-0.944-0.114-1.871-0.343-2.817-0.45c-0.78-0.088-2.635-0.326-3.228,0.354
							c-0.178,0.204-0.245,0.48-0.301,0.745c-0.412,1.96-0.518,3.976-0.981,5.925c-0.321,1.354-0.835,2.701-1.683,3.816
							c-0.726,0.954-2.242,1.67-2.595,2.835c-0.356,1.178,0.499,2.655,0.927,3.723c0.527,1.314,1.326,2.487,2.257,3.551
							c1.947,2.225,4.657,3.596,7.648,3.477c2.49-0.099,4.701-1.403,6.621-2.893c0.842-0.653,1.637-1.289,2.379-1.968
							c1.029-0.943,1.956-1.971,2.762-3.252C317.146,311.505,317.144,310.692,316.776,310.015z"/>
					</g>
				</g>
				<g id="XMLID_385_">
					<g id="XMLID_190_">
						<path d="M293.941,308.747c0.895-0.308,1.838-0.439,2.762-0.666c2.383,1.786,4.877,3.425,7.462,4.904
							c1.445,0.827,2.962,1.618,4.615,1.815c1.653,0.197,3.486-0.315,4.459-1.666c1.071-1.487,0.798-3.352,0.622-5.05
							c1.235-0.489,3.846,0.938,5.069,1.426c2.342,0.934,2.681,2.857,3.183,5.062c0.753,3.308,1.753,6.504,2.052,9.905
							c0.303,3.451-0.032,7.029-1.522,10.157c-0.72,1.512-1.705,2.915-2.236,4.514c-0.553,1.667,0.126,2.635,0.412,4.258
							c0.72,4.079,1.263,8.199,1.74,12.313c0.144,1.239,0.277,2.509-0.015,3.722c-0.386,1.603-1.28,2.569-2.857,2.492
							c-1.697-0.083-3.569-0.506-5.243-0.061c-1.234,0.328-2.475,0.624-3.725,0.887c-4.263,0.896-12.9,3.044-15.941-1.439
							c-1.168-1.722-1.452-4.463-1.957-6.464c-0.634-2.513-1.209-5.042-1.724-7.582c-1.008-4.979-1.784-10.006-2.324-15.057
							c-0.228-2.137-0.437-4.351-1.491-6.224c-0.785-1.393-2.039-2.504-3.49-3.166c-0.703-0.32-3.341-0.355-3.676-0.878
							c-0.555-0.865,1.156-4.733,1.644-5.602C284.111,312.175,289.541,310.26,293.941,308.747z"/>
					</g>
				</g>
				<g id="XMLID_183_">
					<g id="XMLID_1243_">
						<path id="XMLID_1636_" style="fill:#FF8270;" d="M293.107,360.344c3.788,3.04,9.054,5.95,14.089,5.429
							c2.404-0.249,4.65-1.295,6.766-2.463c3.067-1.694,5.999-3.649,8.691-5.893c1.935-1.613,5.01-3.386,5.038-6.206
							c0.017-1.736-1.082-3.431-2.673-4.125c-1.478-0.645-3.171-0.444-4.77-0.231c-3.424,0.455-8.151,0.819-10.854,3.251
							c-1.556,1.4-3.954,4.295-5.068,0.614c-0.701-2.317-2.138-4.118-3.214-6.225c-1.339-2.623-1.94-5.305-2.612-8.156
							c-0.535-2.267-1.218-4.499-2.044-6.676c-1.104-2.91-2.559-5.845-5.074-7.678s-6.338-2.193-8.604-0.06
							c-1.376,1.295-1.941,3.212-2.419,5.04c-0.594,2.269-1.144,4.576-1.152,6.922c-0.014,4.126,1.64,8.057,3.338,11.818
							C285.06,351.276,288.284,356.474,293.107,360.344z"/>
					</g>
				</g>
				<g id="XMLID_384_">
					<g id="XMLID_282_">
						<path id="XMLID_1627_" d="M293.188,316.448c-0.114-0.069-0.23-0.135-0.347-0.198c-2.824-1.53-9.857-2.328-11.148,1.593
							c-2.287,6.947-3.449,14.263-3.426,21.577c7.176-1.136,14.363-2.206,21.56-3.21c-0.048,0.007-1.084-8.769-1.156-9.281
							c-0.224-1.587-0.451-3.185-0.971-4.701C296.889,319.868,295.321,317.73,293.188,316.448z"/>
					</g>
				</g>
				<path d="M337.989,344.132h-8.111c-0.704,0-1.249-0.617-1.162-1.316l2.415-19.377c0.073-0.586,0.571-1.026,1.162-1.026h8.111
					c0.704,0,1.249,0.617,1.162,1.316l-2.414,19.377C339.078,343.691,338.58,344.132,337.989,344.132z"/>
				<path style="fill:#FF8270;" d="M344.368,334.224c-1.065,2.428-4.24,4.576-6.901,4.659c-0.483,0.015-0.989-0.053-1.39-0.323
					c-0.239-0.161-0.429-0.387-0.59-0.626c-1.148-1.699-0.916-3.942-0.638-5.974c0.163-1.195,0.463-2.583,1.558-3.088
					c0.702-0.324,1.52-0.168,2.292-0.228c0.886-0.068,1.738-0.426,2.627-0.418C344.218,328.252,345.362,331.958,344.368,334.224z"/>
				<g>
					<g id="XMLID_182_">
						<g id="XMLID_227_">
							<path id="XMLID_1664_" style="fill:#FF8270;" d="M298.97,297.719c0.421,1.916,4.792,3.393,6.363,3.719
								c2.426,0.503,4.426-0.387,5.844-2.51c1.1-1.648,1.568-3.63,1.905-5.583c0.245-1.419,0.433-2.848,0.562-4.283
								c0.481-5.355-3.978-8.135-8.983-7.036c-2.492,0.547-4.852,2.248-5.777,4.684c-0.178,0.47-0.328,0.937-0.454,1.397
								c-0.203,1.404-0.354,2.818-0.341,4.239c0.011,1.185,0.238,2.321,0.401,3.474C298.667,296.449,298.83,297.082,298.97,297.719z
								"/>
						</g>
					</g>
					<g id="XMLID_386_">
					</g>
					<g id="XMLID_1286_">
						<g id="XMLID_1380_">
							<path id="XMLID_1535_" d="M312.683,281.1c-0.175-0.01-0.347-0.014-0.514-0.013c-2.242,0.012-4.482-0.165-6.692-0.548
								c-1.024-0.178-2.054-0.4-3.093-0.353c-1.929,0.086-3.758,1.131-4.954,2.647c-1.196,1.516-1.783,3.464-1.806,5.395
								c-0.02,1.696,0.058,3.02-0.915,4.452c-0.966,1.422-2.22,2.22-3.7,3.064c-1.955,1.115-3.913,2.485-4.861,4.526
								c-0.572,1.232-0.736,2.634-1.397,3.821c-0.569,1.022-1.467,1.813-2.32,2.614c-2.592,2.435-4.979,5.25-6.062,8.638
								c-1.083,3.388-0.625,7.445,1.88,9.97c1.763,1.777,4.344,2.604,6.846,2.541c2.502-0.063,4.929-0.949,7.098-2.199
								c3.528-2.033,6.598-5.295,7.294-9.306c0.304-1.753,0.144-3.555-0.166-5.307c-0.194-1.1-0.449-2.213-0.316-3.322
								c0.162-1.357,0.624-2.65,0.788-4.012c0.175-1.459,0.21-2.809,0.089-4.29c-0.299-3.658-1.071-8.808,2.341-11.382
								c1.854-1.399,4.942-1.487,7.101-0.842c1.967,0.588,3.997,1.373,5.625-0.425c0.63-0.696,0.981-1.616,1.079-2.55
								c0.037-0.355,0.039-0.72-0.052-1.065C315.572,281.637,314.048,281.179,312.683,281.1z"/>
						</g>
					</g>
					<g id="XMLID_180_">
						<g id="XMLID_181_">
							<path id="XMLID_1515_" style="fill:#FF8270;" d="M302.301,292.486c-0.175-0.436-0.474-0.798-0.835-1.028
								c-0.484-0.456-1.309-0.486-1.908-0.263c-0.841,0.312-1.434,1.206-1.461,2.148c-0.06,2.076,2.365,3.16,3.739,1.746
								C302.484,294.423,302.654,293.367,302.301,292.486z"/>
						</g>
					</g>
				</g>
				<path style="fill:#FFFFFF;stroke:#000000;stroke-miterlimit:10;" d="M302.416,390.443c5.248,2.013,10.642,3.681,16.167,4.714
					c3.466,0.648,6.974,1.045,10.478,1.442c29.343,3.32,101.536,13.898,101.536,13.898c2.318-8.254,4.398-16.517,6.916-24.713
					c-3.704-3.096-8.778-4.488-13.543-3.717c-2.359,0.382-4.961,1.22-6.992-0.039c-1.089-0.675-1.767-1.833-2.647-2.764
					c-3.063-3.241-8.087-3.393-12.544-3.255c-6.81,0.212-11.703-2.055-17.878-4.506c-6.896-2.737-13.829-5.407-20.876-7.736
					c-11.141-3.681-22.55-7.025-34.274-7.464"/>
				<g id="XMLID_229_">
					<g id="XMLID_226_">
						<path style="fill:#FF8270;" d="M363.745,411.72c-0.485-0.511-0.787-1.186-0.799-2.065c-0.074-5.297-0.148-10.593-0.222-15.89
							c3.509,0.998,7.198,1.552,10.782,2.288c-0.628,3.015-1.322,6.016-1.707,9.075c-0.256,2.036-0.648,4.08-0.833,6.13
							c-0.901,0.832-1.975,1.89-2.718,1.888C366.589,413.143,364.763,412.791,363.745,411.72z"/>
					</g>
				</g>
				<g id="XMLID_392_">
					<g id="XMLID_395_">
						<g id="XMLID_396_">
							<g id="XMLID_1183_">
								<path id="XMLID_1559_" d="M382.641,414.943c0.541,0.109,1.082,0.218,1.613,0.368c1.492,0.422,3.699,1.48,3.061,3.396
									c-0.269,0.81-0.744,1.105-1.555,1.371c-0.622,0.204-1.34,0.324-1.998,0.316c-1.08-0.013-15.384-0.594-21.257-1.901
									c-1.158-0.258-1.431-1.042-1.41-1.722c0.066-2.127,0.288-4.521,0.523-6.672c0.081-0.735,0.927-1.1,1.523-0.663
									c1.434,1.05,3.256,1.945,5.079,1.555c1.193-0.255,1.633-1.184,2.588-1.636c2.099-0.994,7.49,4.398,10.031,5.167
									C381.431,414.699,382.036,414.821,382.641,414.943z"/>
							</g>
						</g>
					</g>
				</g>
				<path style="fill:#FFFFFF;stroke:#000000;stroke-miterlimit:10;" d="M353.247,394.936c-0.003,0.052,3.463,0.499,3.674,0.529
					c4.631,0.666,9.261,1.333,13.891,2.011c2.16,0.316,4.321,0.634,6.48,0.962c1.049,0.159,4.63,1.237,5.277,0.548
					c0.19-0.202,0.272-0.481,0.345-0.749c1.194-4.357,1.844-8.863,1.929-13.38c0.058-3.057-0.967-5.016-2.457-7.572
					c-3.388-5.814,1.382-13.524-0.968-19.829c-0.555-1.487-1.487-2.818-1.974-4.329c-0.696-2.158-0.43-4.488-0.495-6.754
					c-0.152-5.27-2.287-13.214-6.746-16.519c-4.062-3.01-9.608-2.552-14.267-1.52c-10.57,2.341-20.452,7.306-29.204,13.677
					c-8.753,6.371-16.421,14.13-23.419,22.39l-12.957-4.649c-1.007,6.11-0.385,12.364,0.461,18.498
					c0.914,6.63,2.45,13.858,7.74,17.959c3.87,3.001,9.163,3.709,13.976,2.808c9.493-1.777,19.869-9.276,26.301-16.277
					c6.845-7.451,13.556-15.471,16.549-25.135C356.682,360.299,353.885,383.08,353.247,394.936z"/>
				<path style="fill:#FF8270;" d="M294.853,363.032c0.538,0.737,1.08,1.478,1.736,2.111c2.038,1.966,5.175,2.71,7.878,1.867
					c3.111-0.97,5.168-3.264,6.698-5.964c1.931-3.409,3.971-6.757,6.113-10.038c-0.433-0.523-1.223-0.56-1.891-0.437
					c-0.913,0.168-1.83,0.252-2.728,0.472c-3.817,0.933-7.465,2.591-11.365,3.075c-2.421,0.301-7.604-0.476-9.425,1.488
					C289.825,357.812,293.62,361.344,294.853,363.032z"/>
				<path style="fill:#FFFFFF;stroke:#000000;stroke-miterlimit:10;" d="M356.574,361.185c0.687-4.614,1.845-9.158,3.451-13.538"/>
				<path style="fill:#FFFFFF;stroke:#000000;stroke-miterlimit:10;" d="M306.156,394.144c-3.439-2.488-5.776-6.445-6.296-10.658"/>
				<path style="fill:none;stroke:#000000;stroke-miterlimit:10;" d="M308.749,289.934c0.17,1.217,0.264,2.444,0.281,3.672
					c0.004,0.273-0.001,0.562-0.145,0.793c-0.144,0.231-0.481,0.364-0.699,0.2"/>
			</g>
			<path style="fill:none;stroke:#FFFFFF;stroke-miterlimit:10;" d="M298.984,336.299c-0.568-4.481-0.659-9.023-0.27-13.524"/>
			<path style="fill:none;stroke:#FFFFFF;stroke-miterlimit:10;" d="M323.948,329.618c0.582-1.681,0.431-3.545-0.088-5.246
				c-0.52-1.701-1.389-3.27-2.251-4.825"/>
			<path style="fill:none;stroke:#FFFFFF;stroke-miterlimit:10;" d="M309.452,338.803c0.243-0.619,0.889-0.97,1.502-1.226
				c2.201-0.918,4.637-1.264,7.007-0.995"/>
			<path style="fill:none;stroke:#000000;stroke-miterlimit:10;" d="M304.738,300.172c1.153,0.724,2.683,0.803,3.904,0.202"/>
			<path style="fill:none;stroke:#000000;stroke-miterlimit:10;" d="M372.572,334.921c1.201,1.628,1.822,3.676,1.725,5.697"/>
			<path style="fill:none;stroke:#000000;stroke-miterlimit:10;" d="M370.459,336.183c0.668,1.18,1.208,2.432,1.61,3.727"/>
			<path style="fill:none;stroke:#FFFFFF;stroke-miterlimit:10;" d="M298.789,308.832c-4.148,1.789-8.272,3.764-11.781,6.608
				c-3.509,2.844-6.392,6.655-7.381,11.063"/>
		</g>
		<g>
			<path style="fill:none;stroke:#000000;stroke-miterlimit:10;" d="M432.091,361.835c0.788-31.128,9.359-62.029,24.718-89.116"/>
			<path d="M448.642,285.508c-1.362-2.513-2.764-5.088-4.38-7.448c-2.113-3.086-6.845-0.405-5.053,2.954
				c1.347,2.525,2.985,4.958,4.585,7.328C445.803,291.317,450.381,288.715,448.642,285.508z"/>
			<path d="M458.24,265.758c-1.154,1.049-1.912,2.572-2.754,3.876c-0.827,1.28-1.767,2.538-2.409,3.922
				c-0.581,1.253-0.458,2.703,0.714,3.579c1.049,0.784,2.708,0.832,3.643-0.217c1.118-1.254,1.994-2.709,2.924-4.103
				c0.932-1.397,2.005-2.74,2.552-4.338C463.865,265.683,460.173,264.001,458.24,265.758z"/>
			<path d="M457.35,294.551c-3.458-0.655-7.663,0.367-10.865,1.717c-3.222,1.358-2.131,6.276,1.489,5.401
				c1.543-0.373,3.094-0.775,4.663-1.025c1.566-0.249,3.178-0.19,4.712-0.591C459.952,299.374,460.185,295.087,457.35,294.551z"/>
			<path d="M439.284,307.129c-1.064-0.882-2.071-1.83-3.01-2.844c-0.905-0.976-1.647-2.327-2.655-3.169
				c-0.982-0.82-2.289-1.124-3.45-0.445c-1.036,0.606-1.72,2.036-1.308,3.215c0.587,1.682,1.911,3.11,3.116,4.404
				c1.165,1.251,2.468,2.318,3.826,3.351c1.124,0.855,2.938,0.288,3.706-0.74C440.298,309.845,440.402,308.056,439.284,307.129z"/>
			<path d="M445.337,319.552c-1.258,0.334-2.47,0.904-3.682,1.378c-1.296,0.507-2.607,0.97-3.804,1.688
				c-2.846,1.708-0.882,5.686,2.163,5.131c1.296-0.236,2.503-0.728,3.738-1.174c1.312-0.474,2.654-0.898,3.905-1.519
				C450.768,323.515,448.572,318.693,445.337,319.552z"/>
			<path d="M434.15,334.898c-0.665-1.231-1.703-2.287-2.728-3.229c-1.158-1.064-2.352-2.092-3.848-2.631
				c-1.194-0.43-2.663,0.286-3.274,1.333c-0.688,1.175-0.383,2.52,0.453,3.514c0.882,1.048,1.71,1.396,2.672,2.253
				c0.975,0.869,1.869,1.78,2.911,2.574c0.967,0.737,2.581,0.361,3.378-0.436C434.608,337.383,434.741,335.991,434.15,334.898z"/>
		</g>
		<path style="fill:none;stroke:#FFFFFF;stroke-miterlimit:10;" d="M101.65,260.762c0.524,4.449,1.208,6.952,2.051,11.352"/>
	</g>
</g>
<g id="DESIGNED_BY_FREEPIK">
	<g id="XMLID_302_">
		<g id="XMLID_328_">
			<g id="XMLID_351_">
				<path id="XMLID_376_" style="fill:#112129;" d="M260.104,468.492c-0.432,0.443-0.803,0.931-1.108,1.453l-0.465-0.241
					c-0.067-0.298-0.349-0.503-0.659-0.466c-0.331,0.039-0.568,0.339-0.529,0.67c0.039,0.331,0.339,0.568,0.67,0.529
					c0.065-0.008,0.127-0.026,0.184-0.052l0.451,0.234c-0.251,0.554-0.433,1.139-0.539,1.744l0.746,0.132
					c0.23-1.306,0.85-2.507,1.792-3.473L260.104,468.492z"/>
				<path id="XMLID_375_" style="fill:#112129;" d="M265.592,466.19c-0.171,0-0.341,0.006-0.51,0.017l-0.074-0.626
					c0.188-0.149,0.296-0.389,0.266-0.645c-0.046-0.393-0.402-0.674-0.795-0.628c-0.393,0.046-0.674,0.402-0.628,0.795
					c0.03,0.254,0.189,0.461,0.405,0.564l0.073,0.624c-0.714,0.116-1.403,0.332-2.06,0.646l0.327,0.684
					c0.934-0.447,1.942-0.673,2.995-0.673c0.496,0,0.993,0.053,1.475,0.158l0.16-0.741
					C266.692,466.249,266.142,466.19,265.592,466.19z"/>
				<path id="XMLID_374_" style="fill:#112129;" d="M272.194,468.737c0.331-0.04,0.566-0.342,0.526-0.672
					c-0.04-0.331-0.341-0.566-0.672-0.526c-0.309,0.038-0.535,0.304-0.53,0.609l-0.416,0.363c-0.418-0.43-0.89-0.813-1.408-1.139
					l-0.404,0.641c1.134,0.715,2.021,1.726,2.563,2.925l0.69-0.313c-0.251-0.554-0.567-1.072-0.942-1.545l0.402-0.351
					C272.065,468.742,272.129,468.745,272.194,468.737z"/>
				<path id="XMLID_373_" style="fill:#112129;" d="M265.044,476.398c-0.386,0.023-0.775,0.035-1.157,0.035
					c-0.88,0-1.733-0.061-2.478-0.179c-0.39-0.062-0.846-0.155-1.27-0.292c1.047,1.861,3.07,3.125,5.388,3.125
					c2.855,0,5.262-1.916,5.949-4.504c-0.682,0.449-1.505,0.825-2.458,1.123C267.839,476.073,266.463,476.313,265.044,476.398z"/>
				<path id="XMLID_352_" style="fill:#112129;" d="M265.592,467.706c-3.352,0-6.08,2.666-6.08,5.943
					c0,0.426,0.046,0.849,0.137,1.261c0.674,0.483,2.706,0.89,5.348,0.731c2.879-0.173,5.297-0.957,6.672-2.159
					c-0.005-0.195-0.021-0.39-0.045-0.582C271.244,469.939,268.65,467.706,265.592,467.706z M263.432,474.221
					c-1.02,0-1.85-0.83-1.85-1.85c0-1.02,0.83-1.85,1.85-1.85c1.02,0,1.85,0.83,1.85,1.85
					C265.282,473.391,264.452,474.221,263.432,474.221z M268.17,473.312c-0.75,0-1.36-0.61-1.36-1.36c0-0.75,0.61-1.361,1.36-1.361
					s1.36,0.61,1.36,1.361C269.53,472.702,268.92,473.312,268.17,473.312z"/>
			</g>
			<path id="XMLID_349_" style="fill:#112129;" d="M281.595,469.573c-0.295-0.116-0.805-0.309-1.382-0.237
				c-0.551,0.069-0.844,0.341-0.844,1.007v0.866h2.228v1.717h-2.228v5.455h-1.932v-5.455h-1.34v-1.717h1.34v-0.888
				c0-1.68,0.896-2.783,2.568-2.783c0.643,0,1.157,0.122,1.59,0.308L281.595,469.573z"/>
			<path id="XMLID_347_" style="fill:#112129;" d="M286.298,472.905c-0.177-0.03-0.358-0.046-0.526-0.046
				c-0.896,0-1.51,0.548-1.51,1.613v3.908h-1.932v-7.172h1.873v0.785c0.451-0.673,1.14-0.977,2.021-0.977
				c0.414,0,0.848,0.128,1.094,0.337L286.298,472.905z"/>
			<path id="XMLID_344_" style="fill:#112129;" d="M293.965,474.783c0,0.222-0.015,0.489-0.037,0.651h-5.085
				c0.207,1.036,0.933,1.488,1.843,1.488c0.622,0,1.295-0.252,1.813-0.688l1.133,1.243c-0.814,0.748-1.85,1.088-3.057,1.088
				c-2.198,0-3.723-1.495-3.723-3.753c0-2.258,1.48-3.797,3.626-3.797C292.544,471.016,293.958,472.548,293.965,474.783z
				 M288.851,474.117h3.175c-0.178-0.918-0.733-1.436-1.562-1.436C289.554,472.681,289.021,473.229,288.851,474.117z"/>
			<path id="XMLID_341_" style="fill:#112129;" d="M301.618,474.783c0,0.222-0.015,0.489-0.037,0.651h-5.085
				c0.207,1.036,0.933,1.488,1.843,1.488c0.622,0,1.295-0.252,1.813-0.688l1.132,1.243c-0.814,0.748-1.85,1.088-3.057,1.088
				c-2.198,0-3.723-1.495-3.723-3.753c0-2.258,1.48-3.797,3.627-3.797C300.197,471.016,301.611,472.548,301.618,474.783z
				 M296.504,474.117h3.175c-0.178-0.918-0.733-1.436-1.562-1.436C297.207,472.681,296.674,473.229,296.504,474.117z"/>
			<path id="XMLID_335_" style="fill:#112129;" d="M309.964,474.791c0,2.154-1.495,3.775-3.471,3.775
				c-0.962,0-1.643-0.378-2.109-0.933v3.708h-1.924v-10.133h1.887V472c0.466-0.585,1.155-0.984,2.139-0.984
				C308.469,471.016,309.964,472.637,309.964,474.791z M304.287,474.791c0,1.132,0.748,1.976,1.843,1.976
				c1.14,0,1.85-0.881,1.85-1.976c0-1.095-0.71-1.976-1.85-1.976C305.035,472.814,304.287,473.658,304.287,474.791z"/>
			<path id="XMLID_331_" style="fill:#112129;" d="M313.068,468.862c0,0.696-0.54,1.229-1.236,1.229
				c-0.696,0-1.229-0.533-1.229-1.229c0-0.696,0.533-1.243,1.229-1.243C312.527,467.619,313.068,468.166,313.068,468.862z
				 M312.809,478.38h-1.932v-7.172h1.932V478.38z"/>
			<path id="XMLID_329_" style="fill:#112129;" d="M316.032,473.762l2.701-2.554h2.368l-3.479,3.375l3.501,3.797h-2.376
				l-2.716-2.901v2.901H314.1v-10.658h1.932V473.762z"/>
		</g>
		<g id="XMLID_410_">
			<path id="XMLID_435_" style="fill:#112129;" d="M184.412,478.315v-1.055c-0.527,0.718-1.391,1.23-2.387,1.23
				c-1.846,0-3.149-1.406-3.149-3.706c0-2.256,1.289-3.721,3.149-3.721c0.952,0,1.816,0.469,2.387,1.245v-3.765h1.099v9.77H184.412z
				 M184.412,476.396v-3.208c-0.395-0.615-1.245-1.143-2.124-1.143c-1.421,0-2.27,1.172-2.27,2.739c0,1.567,0.85,2.724,2.27,2.724
				C183.168,477.51,184.017,477.012,184.412,476.396z"/>
			<path id="XMLID_432_" style="fill:#112129;" d="M186.932,474.771c0-2.051,1.465-3.706,3.486-3.706
				c2.139,0,3.398,1.67,3.398,3.794v0.279h-5.727c0.088,1.333,1.025,2.446,2.549,2.446c0.805,0,1.626-0.322,2.182-0.893l0.527,0.718
				c-0.703,0.703-1.655,1.084-2.812,1.084C188.44,478.491,186.932,476.982,186.932,474.771z M190.403,471.973
				c-1.509,0-2.256,1.274-2.314,2.358h4.643C192.718,473.276,192.015,471.973,190.403,471.973z"/>
			<path id="XMLID_430_" style="fill:#112129;" d="M194.607,477.378l0.571-0.791c0.469,0.542,1.362,1.011,2.329,1.011
				c1.084,0,1.67-0.513,1.67-1.216c0-1.714-4.38-0.659-4.38-3.281c0-1.098,0.952-2.036,2.636-2.036c1.201,0,2.051,0.454,2.622,1.025
				l-0.513,0.762c-0.424-0.513-1.201-0.894-2.109-0.894c-0.967,0-1.567,0.483-1.567,1.113c0,1.552,4.38,0.527,4.38,3.281
				c0,1.187-0.952,2.138-2.783,2.138C196.306,478.491,195.325,478.139,194.607,477.378z"/>
			<path id="XMLID_427_" style="fill:#112129;" d="M201.477,469.497c0-0.41,0.337-0.747,0.732-0.747c0.41,0,0.747,0.337,0.747,0.747
				c0,0.41-0.337,0.732-0.747,0.732C201.814,470.229,201.477,469.908,201.477,469.497z M201.667,478.315v-7.075h1.099v7.075H201.667
				z"/>
			<path id="XMLID_424_" style="fill:#112129;" d="M204.582,480.132l0.556-0.82c0.586,0.703,1.289,0.967,2.3,0.967
				c1.172,0,2.27-0.571,2.27-2.124v-1.011c-0.513,0.718-1.377,1.26-2.373,1.26c-1.845,0-3.149-1.377-3.149-3.662
				c0-2.27,1.289-3.676,3.149-3.676c0.952,0,1.802,0.469,2.373,1.245v-1.069h1.098v6.87c0,2.344-1.641,3.076-3.369,3.076
				C206.237,481.186,205.417,480.952,204.582,480.132z M209.709,476.279v-3.091c-0.381-0.615-1.23-1.143-2.109-1.143
				c-1.421,0-2.27,1.128-2.27,2.695c0,1.553,0.849,2.695,2.27,2.695C208.478,477.436,209.328,476.895,209.709,476.279z"/>
			<path id="XMLID_422_" style="fill:#112129;" d="M217.413,478.315v-4.629c0-1.245-0.63-1.641-1.582-1.641
				c-0.864,0-1.685,0.527-2.095,1.099v5.17h-1.099v-7.075h1.099v1.025c0.498-0.586,1.464-1.201,2.519-1.201
				c1.479,0,2.256,0.747,2.256,2.285v4.966H217.413z"/>
			<path id="XMLID_419_" style="fill:#112129;" d="M219.932,474.771c0-2.051,1.465-3.706,3.486-3.706
				c2.139,0,3.398,1.67,3.398,3.794v0.279h-5.727c0.088,1.333,1.025,2.446,2.548,2.446c0.806,0,1.626-0.322,2.183-0.893l0.527,0.718
				c-0.703,0.703-1.655,1.084-2.812,1.084C221.441,478.491,219.932,476.982,219.932,474.771z M223.404,471.973
				c-1.509,0-2.256,1.274-2.314,2.358h4.643C225.718,473.276,225.015,471.973,223.404,471.973z"/>
			<path id="XMLID_416_" style="fill:#112129;" d="M233.35,478.315v-1.055c-0.527,0.718-1.392,1.23-2.388,1.23
				c-1.846,0-3.149-1.406-3.149-3.706c0-2.256,1.289-3.721,3.149-3.721c0.952,0,1.817,0.469,2.388,1.245v-3.765h1.098v9.77H233.35z
				 M233.35,476.396v-3.208c-0.396-0.615-1.245-1.143-2.124-1.143c-1.421,0-2.27,1.172-2.27,2.739c0,1.567,0.849,2.724,2.27,2.724
				C232.105,477.51,232.954,477.012,233.35,476.396z"/>
			<path id="XMLID_413_" style="fill:#112129;" d="M239.692,478.315v-9.77h1.098v3.765c0.572-0.776,1.421-1.245,2.388-1.245
				c1.845,0,3.149,1.465,3.149,3.721c0,2.299-1.304,3.706-3.149,3.706c-0.996,0-1.86-0.513-2.388-1.23v1.055H239.692z M242.9,477.51
				c1.436,0,2.285-1.157,2.285-2.724c0-1.568-0.85-2.739-2.285-2.739c-0.864,0-1.728,0.527-2.109,1.143v3.208
				C241.171,477.012,242.036,477.51,242.9,477.51z"/>
			<path id="XMLID_411_" style="fill:#112129;" d="M247.528,480.088c0.161,0.073,0.425,0.117,0.601,0.117
				c0.483,0,0.805-0.161,1.055-0.747l0.469-1.069l-2.959-7.148h1.187l2.358,5.801l2.344-5.801h1.201l-3.545,8.51
				c-0.425,1.025-1.143,1.421-2.08,1.435c-0.234,0-0.601-0.044-0.805-0.103L247.528,480.088z"/>
		</g>
	</g>
</g>
</svg>
